# Blender v3.4.0 OBJ File: 'Track1.blend'
# www.blender.org
mtllib DriftZone02_01.mtl
o Plane.014_Plane.012
v 2.573413 0.052055 1.875549
v 2.593181 0.052055 2.241089
v 3.265062 0.052055 2.362159
v 3.233752 0.052055 1.702192
v 2.602483 0.052055 2.156637
v 2.602262 0.052055 2.065668
v 2.592433 0.052055 1.971364
v 3.284181 0.052055 2.193683
v 3.283868 0.052055 2.026915
v 3.266455 0.052055 1.862790
v 2.593181 0.052055 2.241089
v 2.493386 0.052055 2.395131
v 2.866734 0.052055 2.966704
v 3.265062 0.052055 2.362159
v 2.539949 0.052055 2.359095
v 2.567042 0.052055 2.330535
v 2.579842 0.052055 2.301680
v 3.009641 0.052055 2.854547
v 3.134510 0.052055 2.710076
v 3.220688 0.052055 2.537069
v 2.493386 0.052055 2.395131
v 2.186137 0.052055 2.481366
v 2.217012 0.052055 3.163368
v 2.866734 0.052055 2.966704
v 2.274601 0.052055 2.472478
v 2.357982 0.052055 2.454127
v 2.432271 0.052055 2.427562
v 2.383794 0.052055 3.146392
v 2.549058 0.052055 3.109547
v 2.711080 0.052055 3.050740
v 2.186137 0.052055 2.481366
v 2.217012 0.052055 3.163368
v 2.005320 0.052055 2.469480
v 2.095669 0.052055 2.480362
v 1.884696 0.052055 3.141434
v 2.050127 0.052055 3.161541
v 3.233752 0.079375 1.702192
v 2.573413 0.079375 1.875549
v 2.592433 0.079375 1.971364
v 2.593181 0.079375 2.241089
v 3.265062 0.079375 2.362159
v 3.266455 0.079375 1.862790
v 2.602483 0.079375 2.156637
v 2.602262 0.079375 2.065668
v 3.284181 0.079375 2.193683
v 3.283868 0.079375 2.026915
v 3.265062 0.079375 2.362159
v 2.593181 0.079375 2.241089
v 2.579842 0.079375 2.301680
v 2.493386 0.079375 2.395131
v 2.866734 0.079375 2.966704
v 3.220688 0.079375 2.537069
v 2.539949 0.079375 2.359095
v 2.567042 0.079375 2.330535
v 3.009641 0.079375 2.854547
v 3.134510 0.079375 2.710076
v 2.866734 0.079375 2.966704
v 2.493386 0.079375 2.395131
v 2.432271 0.079375 2.427562
v 2.186137 0.079375 2.481366
v 2.217012 0.079375 3.163368
v 2.711080 0.079375 3.050740
v 2.274601 0.079375 2.472478
v 2.357982 0.079375 2.454127
v 2.383794 0.079375 3.146392
v 2.549058 0.079375 3.109547
v 2.217012 0.079375 3.163368
v 2.186137 0.079375 2.481366
v 2.095669 0.079375 2.480362
v 2.050127 0.079375 3.161541
v 2.005320 0.079375 2.469480
v 1.884696 0.079375 3.141434
vt 0.750000 0.112873
vt 0.750000 0.891105
vt 1.000000 0.891105
vt 1.000000 0.112873
vt 0.000000 0.112873
vt 0.000000 0.891105
vt 0.250000 0.891105
vt 0.250000 0.112873
vt 0.500000 0.891105
vt 0.500000 0.112873
vt 0.750000 0.112873
vt 0.750000 0.891105
vt 1.000000 0.891105
vt 1.000000 0.112873
vt 0.000000 0.112873
vt 0.000000 0.891105
vt 0.250000 0.891105
vt 0.250000 0.112873
vt 0.500000 0.891105
vt 0.500000 0.112873
vt 0.750000 0.112873
vt 0.750000 0.891105
vt 1.000000 0.891105
vt 1.000000 0.112873
vt 0.000000 0.112873
vt 0.000000 0.891105
vt 0.250000 0.891105
vt 0.250000 0.112873
vt 0.500000 0.891105
vt 0.500000 0.112873
vt 0.000000 0.112873
vt 0.000000 0.891105
vt 0.250000 0.891105
vt 0.250000 0.112873
vt 0.500000 0.891105
vt 0.500000 0.112873
vt 0.750000 0.112873
vt 1.000000 0.112873
vt 1.000000 0.891105
vt 0.750000 0.891105
vt 0.000000 0.112873
vt 0.250000 0.112873
vt 0.250000 0.891105
vt 0.000000 0.891105
vt 0.500000 0.112873
vt 0.500000 0.891105
vt 0.750000 0.112873
vt 1.000000 0.112873
vt 1.000000 0.891105
vt 0.750000 0.891105
vt 0.000000 0.112873
vt 0.250000 0.112873
vt 0.250000 0.891105
vt 0.000000 0.891105
vt 0.500000 0.112873
vt 0.500000 0.891105
vt 0.750000 0.112873
vt 1.000000 0.112873
vt 1.000000 0.891105
vt 0.750000 0.891105
vt 0.000000 0.112873
vt 0.250000 0.112873
vt 0.250000 0.891105
vt 0.000000 0.891105
vt 0.500000 0.112873
vt 0.500000 0.891105
vt 0.000000 0.112873
vt 0.250000 0.112873
vt 0.250000 0.891105
vt 0.000000 0.891105
vt 0.500000 0.112873
vt 0.500000 0.891105
vn -0.0000 -1.0000 0.0000
vn 0.0000 1.0000 -0.0000
vn -0.7255 0.0000 -0.6882
vn -0.9843 0.0000 -0.1767
vn -1.0000 0.0000 0.0024
vn -0.3367 0.0000 -0.9416
vn -0.9141 0.0000 -0.4055
vn -0.9946 0.0000 0.1037
vn 0.1013 0.0000 0.9949
vn 0.6174 0.0000 0.7867
vn 0.9936 0.0000 0.1128
vn 0.2176 0.0000 0.9760
vn 0.7566 0.0000 0.6539
vn 1.0000 0.0000 -0.0019
vn 0.3412 0.0000 0.9400
vn 0.8951 0.0000 0.4459
vn 0.9944 0.0000 -0.1055
vn 0.9990 0.0000 -0.0452
vn 0.8372 0.0000 -0.5469
vn 0.1773 0.0000 -0.9841
vn 0.0111 0.0000 -0.9999
vn -0.2539 0.0000 -0.9672
vn -0.4687 0.0000 -0.8833
vn -0.9766 0.0000 -0.2150
vn -0.0110 0.0000 0.9999
vn -0.9809 0.0000 0.1947
vn -0.9990 0.0000 0.0452
vn -0.8372 0.0000 0.5469
vn 0.1196 0.0000 -0.9928
vn -0.1773 0.0000 0.9841
vn 0.4751 0.0000 0.8799
vn 0.9693 0.0000 0.2459
vn -0.1207 0.0000 0.9927
vn 0.9799 0.0000 -0.1995
vn -0.1000 0.0000 -0.9950
vn -0.6120 0.0000 -0.7908
vn -0.9940 0.0000 -0.1095
vn -0.2149 0.0000 -0.9766
usemtl Material.007
s off
f 5/1/1 8/2/1 3/3/1 2/4/1
f 1/5/1 4/6/1 10/7/1 7/8/1
f 7/8/1 10/7/1 9/9/1 6/10/1
f 6/10/1 9/9/1 8/2/1 5/1/1
f 15/11/1 18/12/1 13/13/1 12/14/1
f 11/15/1 14/16/1 20/17/1 17/18/1
f 17/18/1 20/17/1 19/19/1 16/20/1
f 16/20/1 19/19/1 18/12/1 15/11/1
f 25/21/1 28/22/1 23/23/1 22/24/1
f 21/25/1 24/26/1 30/27/1 27/28/1
f 27/28/1 30/27/1 29/29/1 26/30/1
f 26/30/1 29/29/1 28/22/1 25/21/1
f 31/31/1 32/32/1 36/33/1 34/34/1
f 34/34/1 36/33/1 35/35/1 33/36/1
f 43/37/2 40/38/2 41/39/2 45/40/2
f 38/41/2 39/42/2 42/43/2 37/44/2
f 39/42/2 44/45/2 46/46/2 42/43/2
f 44/45/2 43/37/2 45/40/2 46/46/2
f 53/47/2 50/48/2 51/49/2 55/50/2
f 48/51/2 49/52/2 52/53/2 47/54/2
f 49/52/2 54/55/2 56/56/2 52/53/2
f 54/55/2 53/47/2 55/50/2 56/56/2
f 63/57/2 60/58/2 61/59/2 65/60/2
f 58/61/2 59/62/2 62/63/2 57/64/2
f 59/62/2 64/65/2 66/66/2 62/63/2
f 64/65/2 63/57/2 65/60/2 66/66/2
f 68/67/2 69/68/2 70/69/2 67/70/2
f 69/68/2 71/71/2 72/72/2 70/69/2
f 16/20/3 15/11/3 53/47/3 54/55/3
f 33/36/4 35/35/4 72/72/4 71/71/4
f 6/10/5 5/1/5 43/37/5 44/45/5
f 27/28/6 26/30/6 64/65/6 59/62/6
f 17/18/7 16/20/7 54/55/7 49/52/7
f 7/8/8 6/10/8 44/45/8 39/42/8
f 23/23/9 28/22/9 65/60/9 61/59/9
f 13/13/10 18/12/10 55/50/10 51/49/10
f 3/3/11 8/2/11 45/40/11 41/39/11
f 28/22/12 29/29/12 66/66/12 65/60/12
f 18/12/13 19/19/13 56/56/13 55/50/13
f 8/2/14 9/9/14 46/46/14 45/40/14
f 29/29/15 30/27/15 62/63/15 66/66/15
f 19/19/16 20/17/16 52/53/16 56/56/16
f 9/9/17 10/7/17 42/43/17 46/46/17
f 32/32/18 31/31/18 68/67/18 67/70/18
f 24/26/19 21/25/19 58/61/19 57/64/19
f 14/16/20 11/15/20 48/51/20 47/54/20
f 31/31/21 34/34/21 69/68/21 68/67/21
f 4/6/22 1/5/22 38/41/22 37/44/22
f 21/25/23 27/28/23 59/62/23 58/61/23
f 11/15/24 17/18/24 49/52/24 48/51/24
f 36/33/25 32/32/25 67/70/25 70/69/25
f 1/5/26 7/8/26 39/42/26 38/41/26
f 22/24/27 23/23/27 61/59/27 60/58/27
f 12/14/28 13/13/28 51/49/28 50/48/28
f 34/34/29 33/36/29 71/71/29 69/68/29
f 2/4/30 3/3/30 41/39/30 40/38/30
f 30/27/31 24/26/31 57/64/31 62/63/31
f 20/17/32 14/16/32 47/54/32 52/53/32
f 35/35/33 36/33/33 70/69/33 72/72/33
f 10/7/34 4/6/34 37/44/34 42/43/34
f 25/21/35 22/24/35 60/58/35 63/57/35
f 15/11/36 12/14/36 50/48/36 53/47/36
f 5/1/37 2/4/37 40/38/37 43/37/37
f 26/30/38 25/21/38 63/57/38 64/65/38
