# Blender v3.4.0 OBJ File: 'Track1.blend'
# www.blender.org
mtllib DriftZone03_03.mtl
o Plane.022_Plane.018
v -0.303980 0.049685 -0.948828
v 0.165759 0.049685 -0.412120
v 0.460850 0.049685 -0.808626
v 0.125220 0.049685 -1.193944
v 0.027920 0.049685 -0.525496
v -0.099767 0.049685 -0.656737
v -0.210653 0.049685 -0.800019
v 0.360920 0.049685 -0.890741
v 0.272177 0.049685 -0.982238
v 0.194133 0.049685 -1.083643
v 0.165794 0.049685 -0.412062
v 0.717326 0.049685 -0.095934
v 0.934664 0.049685 -0.539847
v 0.460871 0.049685 -0.808578
v 0.582975 0.049685 -0.163065
v 0.445903 0.049685 -0.236097
v 0.306437 0.049685 -0.317822
v 0.809769 0.049685 -0.602221
v 0.688202 0.049685 -0.666893
v 0.571307 0.049685 -0.735121
v 0.717361 0.049685 -0.095892
v 1.222419 0.049685 0.150401
v 1.449214 0.049685 -0.288755
v 0.934698 0.049685 -0.539804
v 1.100410 0.049685 0.088560
v 0.975029 0.049685 0.027739
v 0.847700 0.049685 -0.033481
v 1.320347 0.049685 -0.354071
v 1.191213 0.049685 -0.416736
v 1.062481 0.049685 -0.478635
v 0.125220 0.060502 -1.193944
v -0.303980 0.060502 -0.948828
v -0.210653 0.060502 -0.800019
v 0.165759 0.060502 -0.412120
v 0.460850 0.060502 -0.808626
v 0.194133 0.060502 -1.083643
v 0.027920 0.060502 -0.525496
v -0.099767 0.060502 -0.656737
v 0.360920 0.060502 -0.890741
v 0.272177 0.060502 -0.982238
v 0.460871 0.060502 -0.808578
v 0.165794 0.060502 -0.412062
v 0.306437 0.060502 -0.317822
v 0.717326 0.060502 -0.095934
v 0.934664 0.060502 -0.539847
v 0.571307 0.060502 -0.735121
v 0.582975 0.060502 -0.163065
v 0.445903 0.060502 -0.236097
v 0.809769 0.060502 -0.602221
v 0.688202 0.060502 -0.666893
v 0.934698 0.060502 -0.539804
v 0.717361 0.060502 -0.095892
v 0.847700 0.060502 -0.033481
v 1.222419 0.060502 0.150401
v 1.449214 0.060502 -0.288755
v 1.062481 0.060502 -0.478635
v 1.100410 0.060502 0.088560
v 0.975029 0.060502 0.027739
v 1.320347 0.060502 -0.354071
v 1.191213 0.060502 -0.416736
vt 0.750000 0.112873
vt 0.750000 0.891105
vt 1.000000 0.891105
vt 1.000000 0.112873
vt 0.000000 0.112873
vt 0.000000 0.891105
vt 0.250000 0.891105
vt 0.250000 0.112873
vt 0.500000 0.891105
vt 0.500000 0.112873
vt 0.750000 0.112873
vt 0.750000 0.891105
vt 1.000000 0.891105
vt 1.000000 0.112873
vt 0.000000 0.112873
vt 0.000000 0.891105
vt 0.250000 0.891105
vt 0.250000 0.112873
vt 0.500000 0.891105
vt 0.500000 0.112873
vt 0.750000 0.112873
vt 0.750000 0.891105
vt 1.000000 0.891105
vt 1.000000 0.112873
vt 0.000000 0.112873
vt 0.000000 0.891105
vt 0.250000 0.891105
vt 0.250000 0.112873
vt 0.500000 0.891105
vt 0.500000 0.112873
vt 0.750000 0.112873
vt 1.000000 0.112873
vt 1.000000 0.891105
vt 0.750000 0.891105
vt 0.000000 0.112873
vt 0.250000 0.112873
vt 0.250000 0.891105
vt 0.000000 0.891105
vt 0.500000 0.112873
vt 0.500000 0.891105
vt 0.750000 0.112873
vt 1.000000 0.112873
vt 1.000000 0.891105
vt 0.750000 0.891105
vt 0.000000 0.112873
vt 0.250000 0.112873
vt 0.250000 0.891105
vt 0.000000 0.891105
vt 0.500000 0.112873
vt 0.500000 0.891105
vt 0.750000 0.112873
vt 1.000000 0.112873
vt 1.000000 0.891105
vt 0.750000 0.891105
vt 0.000000 0.112873
vt 0.250000 0.112873
vt 0.250000 0.891105
vt 0.000000 0.891105
vt 0.500000 0.112873
vt 0.500000 0.891105
vn 0.0000 -1.0000 -0.0000
vn 0.0000 1.0000 0.0000
vn 0.4468 0.0000 -0.8946
vn 0.6349 0.0000 -0.7726
vn 0.4366 0.0000 -0.8997
vn 0.4697 0.0000 -0.8828
vn 0.7178 0.0000 -0.6962
vn 0.4333 0.0000 -0.9012
vn 0.5041 0.0000 -0.8637
vn 0.7925 0.0000 -0.6099
vn -0.8981 0.0000 -0.4397
vn -0.8022 0.0000 -0.5970
vn -0.4959 0.0000 -0.8684
vn -0.4319 0.0000 0.9019
vn -0.5567 0.0000 0.8307
vn -0.8472 0.0000 0.5313
vn 0.8885 0.0000 0.4589
vn 0.8981 0.0000 0.4397
vn 0.8022 0.0000 0.5970
vn 0.4318 0.0000 -0.9020
vn 0.5538 0.0000 -0.8326
vn 0.8481 0.0000 -0.5299
vn -0.4521 0.0000 0.8920
vn -0.4470 0.0000 0.8945
vn -0.6352 0.0000 0.7723
vn -0.4364 0.0000 0.8997
vn -0.4702 0.0000 0.8825
vn -0.7167 0.0000 0.6973
vn -0.4333 0.0000 0.9012
vn -0.5056 0.0000 0.8628
vn -0.7908 0.0000 0.6120
vn 0.4521 0.0000 -0.8920
usemtl Material.007
s off
f 5/1/1 8/2/1 3/3/1 2/4/1
f 1/5/1 4/6/1 10/7/1 7/8/1
f 7/8/1 10/7/1 9/9/1 6/10/1
f 6/10/1 9/9/1 8/2/1 5/1/1
f 15/11/1 18/12/1 13/13/1 12/14/1
f 11/15/1 14/16/1 20/17/1 17/18/1
f 17/18/1 20/17/1 19/19/1 16/20/1
f 16/20/1 19/19/1 18/12/1 15/11/1
f 25/21/1 28/22/1 23/23/1 22/24/1
f 21/25/1 24/26/1 30/27/1 27/28/1
f 27/28/1 30/27/1 29/29/1 26/30/1
f 26/30/1 29/29/1 28/22/1 25/21/1
f 37/31/2 34/32/2 35/33/2 39/34/2
f 32/35/2 33/36/2 36/37/2 31/38/2
f 33/36/2 38/39/2 40/40/2 36/37/2
f 38/39/2 37/31/2 39/34/2 40/40/2
f 47/41/2 44/42/2 45/43/2 49/44/2
f 42/45/2 43/46/2 46/47/2 41/48/2
f 43/46/2 48/49/2 50/50/2 46/47/2
f 48/49/2 47/41/2 49/44/2 50/50/2
f 57/51/2 54/52/2 55/53/2 59/54/2
f 52/55/2 53/56/2 56/57/2 51/58/2
f 53/56/2 58/59/2 60/60/2 56/57/2
f 58/59/2 57/51/2 59/54/2 60/60/2
f 13/13/3 18/12/3 49/44/3 45/43/3
f 3/3/4 8/2/4 39/34/4 35/33/4
f 28/22/5 29/29/5 60/60/5 59/54/5
f 18/12/6 19/19/6 50/50/6 49/44/6
f 8/2/7 9/9/7 40/40/7 39/34/7
f 29/29/8 30/27/8 56/57/8 60/60/8
f 19/19/9 20/17/9 46/47/9 50/50/9
f 9/9/10 10/7/10 36/37/10 40/40/10
f 24/26/11 21/25/11 52/55/11 51/58/11
f 14/16/12 11/15/12 42/45/12 41/48/12
f 4/6/13 1/5/13 32/35/13 31/38/13
f 21/25/14 27/28/14 53/56/14 52/55/14
f 11/15/15 17/18/15 43/46/15 42/45/15
f 1/5/16 7/8/16 33/36/16 32/35/16
f 22/24/17 23/23/17 55/53/17 54/52/17
f 12/14/18 13/13/18 45/43/18 44/42/18
f 2/4/19 3/3/19 35/33/19 34/32/19
f 30/27/20 24/26/20 51/58/20 56/57/20
f 20/17/21 14/16/21 41/48/21 46/47/21
f 10/7/22 4/6/22 31/38/22 36/37/22
f 25/21/23 22/24/23 54/52/23 57/51/23
f 15/11/24 12/14/24 44/42/24 47/41/24
f 5/1/25 2/4/25 34/32/25 37/31/25
f 26/30/26 25/21/26 57/51/26 58/59/26
f 16/20/27 15/11/27 47/41/27 48/49/27
f 6/10/28 5/1/28 37/31/28 38/39/28
f 27/28/29 26/30/29 58/59/29 53/56/29
f 17/18/30 16/20/30 48/49/30 43/46/30
f 7/8/31 6/10/31 38/39/31 33/36/31
f 23/23/32 28/22/32 59/54/32 55/53/32
