# Blender v3.4.0 OBJ File: 'Track1.blend'
# www.blender.org
mtllib DriftZone03_01.mtl
o Plane.021_Plane.010
v -0.853605 0.049685 2.218385
v -1.026715 0.049685 1.912014
v -1.517166 0.049685 1.973242
v -1.228269 0.049685 2.540751
v -1.011518 0.049685 1.977692
v -0.976346 0.049685 2.052678
v -0.921331 0.049685 2.134269
v -1.478951 0.049685 2.138305
v -1.411157 0.049685 2.287702
v -1.324627 0.049685 2.420009
v -1.026699 0.049685 1.911989
v -0.923174 0.049685 1.603881
v -1.349140 0.049685 1.353189
v -1.517154 0.049685 1.973181
v -0.976830 0.049685 1.699774
v -1.011878 0.049685 1.782202
v -1.027183 0.049685 1.850357
v -1.423462 0.049685 1.488084
v -1.484425 0.049685 1.637323
v -1.519067 0.049685 1.801968
v -0.923134 0.049685 1.603858
v -0.607120 0.049685 1.111672
v -1.043402 0.049685 0.879398
v -1.349093 0.049685 1.353154
v -0.693701 0.049685 1.256016
v -0.777720 0.049685 1.382658
v -0.855366 0.049685 1.497881
v -1.112229 0.049685 0.993095
v -1.189162 0.049685 1.108779
v -1.269419 0.049685 1.227966
v -0.607070 0.049685 1.111624
v -0.580965 0.049685 0.228905
v -1.013448 0.049685 0.468174
v -1.043362 0.049685 0.879369
v -0.490195 0.049685 0.449536
v -0.471158 0.049685 0.709612
v -0.525347 0.049685 0.936013
v -0.970659 0.049685 0.565491
v -0.963177 0.049685 0.662625
v -0.990136 0.049685 0.767899
v -1.228269 0.056522 2.540751
v -0.853605 0.056522 2.218385
v -0.921331 0.056522 2.134269
v -1.026715 0.056522 1.912014
v -1.517166 0.056522 1.973242
v -1.324627 0.056522 2.420009
v -1.011518 0.056522 1.977692
v -0.976346 0.056522 2.052678
v -1.478951 0.056522 2.138305
v -1.411157 0.056522 2.287702
v -1.517154 0.056522 1.973181
v -1.026699 0.056522 1.911989
v -1.027183 0.056522 1.850357
v -0.923174 0.056522 1.603881
v -1.349140 0.056522 1.353189
v -1.519067 0.056522 1.801968
v -0.976830 0.056522 1.699774
v -1.011878 0.056522 1.782202
v -1.423462 0.056522 1.488084
v -1.484425 0.056522 1.637323
v -1.349093 0.056522 1.353154
v -0.923134 0.056522 1.603858
v -0.855366 0.056522 1.497881
v -0.607120 0.056522 1.111672
v -1.043402 0.056522 0.879398
v -1.269419 0.056522 1.227966
v -0.693701 0.056522 1.256016
v -0.777720 0.056522 1.382658
v -1.112229 0.056522 0.993095
v -1.189162 0.056522 1.108779
v -1.043362 0.056522 0.879369
v -0.607070 0.056522 1.111624
v -0.525347 0.056522 0.936013
v -0.580965 0.056522 0.228905
v -1.013448 0.056522 0.468174
v -0.990136 0.056522 0.767899
v -0.490195 0.056522 0.449536
v -0.471158 0.056522 0.709612
v -0.970659 0.056522 0.565491
v -0.963177 0.056522 0.662625
vt 0.750000 0.112873
vt 0.750000 0.891105
vt 1.000000 0.891105
vt 1.000000 0.112873
vt 0.000000 0.112873
vt 0.000000 0.891105
vt 0.250000 0.891105
vt 0.250000 0.112873
vt 0.500000 0.891105
vt 0.500000 0.112873
vt 0.750000 0.112873
vt 0.750000 0.891105
vt 1.000000 0.891105
vt 1.000000 0.112873
vt 0.000000 0.112873
vt 0.000000 0.891105
vt 0.250000 0.891105
vt 0.250000 0.112873
vt 0.500000 0.891105
vt 0.500000 0.112873
vt 0.750000 0.112873
vt 0.750000 0.891105
vt 1.000000 0.891105
vt 1.000000 0.112873
vt 0.000000 0.112873
vt 0.000000 0.891105
vt 0.250000 0.891105
vt 0.250000 0.112873
vt 0.500000 0.891105
vt 0.500000 0.112873
vt 0.750000 0.112873
vt 0.750000 0.891105
vt 1.000000 0.891105
vt 1.000000 0.112873
vt 0.000000 0.112873
vt 0.000000 0.891105
vt 0.250000 0.891105
vt 0.250000 0.112873
vt 0.500000 0.891105
vt 0.500000 0.112873
vt 0.750000 0.112873
vt 1.000000 0.112873
vt 1.000000 0.891105
vt 0.750000 0.891105
vt 0.000000 0.112873
vt 0.250000 0.112873
vt 0.250000 0.891105
vt 0.000000 0.891105
vt 0.500000 0.112873
vt 0.500000 0.891105
vt 0.750000 0.112873
vt 1.000000 0.112873
vt 1.000000 0.891105
vt 0.750000 0.891105
vt 0.000000 0.112873
vt 0.250000 0.112873
vt 0.250000 0.891105
vt 0.000000 0.891105
vt 0.500000 0.112873
vt 0.500000 0.891105
vt 0.750000 0.112873
vt 1.000000 0.112873
vt 1.000000 0.891105
vt 0.750000 0.891105
vt 0.000000 0.112873
vt 0.250000 0.112873
vt 0.250000 0.891105
vt 0.000000 0.891105
vt 0.500000 0.112873
vt 0.500000 0.891105
vt 0.750000 0.112873
vt 1.000000 0.112873
vt 1.000000 0.891105
vt 0.750000 0.891105
vt 0.000000 0.112873
vt 0.250000 0.112873
vt 0.250000 0.891105
vt 0.000000 0.891105
vt 0.500000 0.112873
vt 0.500000 0.891105
vn 0.0000 -1.0000 0.0000
vn 0.0000 1.0000 0.0000
vn -0.9106 0.0000 0.4132
vn -0.8295 0.0000 -0.5585
vn -0.9786 0.0000 -0.2059
vn -0.8369 0.0000 0.5473
vn -0.4699 0.0000 0.8827
vn -0.5072 0.0000 0.8618
vn 0.1238 0.0000 0.9923
vn 0.9066 0.0000 0.4219
vn 0.6522 0.0000 0.7580
vn 0.8425 0.0000 0.5387
vn 1.0000 0.0000 -0.0079
vn -0.4841 0.0000 -0.8750
vn 0.7789 0.0000 -0.6271
vn 0.4699 0.0000 -0.8827
vn 0.5072 0.0000 -0.8618
vn -0.9024 0.0000 -0.4309
vn -0.1239 0.0000 -0.9923
vn -0.8436 0.0000 -0.5369
vn -0.9999 0.0000 0.0112
vn 0.9248 0.0000 -0.3805
vn -0.7816 0.0000 0.6238
vn 0.8576 0.0000 0.5144
vn 0.8727 0.0000 0.4883
vn 0.9973 0.0000 -0.0730
vn 0.9743 0.0000 -0.2254
vn 0.8333 0.0000 0.5528
vn 0.9203 0.0000 0.3913
vn 0.9725 0.0000 0.2328
vn 0.9054 0.0000 -0.4247
vn 0.8293 0.0000 0.5588
vn 0.9757 0.0000 0.2191
vn -0.9154 0.0000 0.4025
vn 0.8291 0.0000 -0.5591
vn -0.8555 0.0000 -0.5179
vn -0.8759 0.0000 -0.4826
vn -0.9970 0.0000 0.0768
vn -0.9742 0.0000 0.2256
vn -0.8327 0.0000 -0.5538
vn -0.9257 0.0000 -0.3782
vn -0.9687 0.0000 -0.2481
usemtl Material.007
s off
f 5/1/1 8/2/1 3/3/1 2/4/1
f 1/5/1 4/6/1 10/7/1 7/8/1
f 7/8/1 10/7/1 9/9/1 6/10/1
f 6/10/1 9/9/1 8/2/1 5/1/1
f 15/11/1 18/12/1 13/13/1 12/14/1
f 11/15/1 14/16/1 20/17/1 17/18/1
f 17/18/1 20/17/1 19/19/1 16/20/1
f 16/20/1 19/19/1 18/12/1 15/11/1
f 25/21/1 28/22/1 23/23/1 22/24/1
f 21/25/1 24/26/1 30/27/1 27/28/1
f 27/28/1 30/27/1 29/29/1 26/30/1
f 26/30/1 29/29/1 28/22/1 25/21/1
f 35/31/1 38/32/1 33/33/1 32/34/1
f 31/35/1 34/36/1 40/37/1 37/38/1
f 37/38/1 40/37/1 39/39/1 36/40/1
f 36/40/1 39/39/1 38/32/1 35/31/1
f 47/41/2 44/42/2 45/43/2 49/44/2
f 42/45/2 43/46/2 46/47/2 41/48/2
f 43/46/2 48/49/2 50/50/2 46/47/2
f 48/49/2 47/41/2 49/44/2 50/50/2
f 57/51/2 54/52/2 55/53/2 59/54/2
f 52/55/2 53/56/2 56/57/2 51/58/2
f 53/56/2 58/59/2 60/60/2 56/57/2
f 58/59/2 57/51/2 59/54/2 60/60/2
f 67/61/2 64/62/2 65/63/2 69/64/2
f 62/65/2 63/66/2 66/67/2 61/68/2
f 63/66/2 68/69/2 70/70/2 66/67/2
f 68/69/2 67/61/2 69/64/2 70/70/2
f 77/71/2 74/72/2 75/73/2 79/74/2
f 72/75/2 73/76/2 76/77/2 71/78/2
f 73/76/2 78/79/2 80/80/2 76/77/2
f 78/79/2 77/71/2 79/74/2 80/80/2
f 8/2/3 9/9/3 50/50/3 49/44/3
f 29/29/4 30/27/4 66/67/4 70/70/4
f 19/19/5 20/17/5 56/57/5 60/60/5
f 9/9/6 10/7/6 46/47/6 50/50/6
f 34/36/7 31/35/7 72/75/7 71/78/7
f 24/26/8 21/25/8 62/65/8 61/68/8
f 14/16/9 11/15/9 52/55/9 51/58/9
f 31/35/10 37/38/10 73/76/10 72/75/10
f 4/6/11 1/5/11 42/45/11 41/48/11
f 21/25/12 27/28/12 63/66/12 62/65/12
f 11/15/13 17/18/13 53/56/13 52/55/13
f 32/34/14 33/33/14 75/73/14 74/72/14
f 1/5/15 7/8/15 43/46/15 42/45/15
f 22/24/16 23/23/16 65/63/16 64/62/16
f 12/14/17 13/13/17 55/53/17 54/52/17
f 40/37/18 34/36/18 71/78/18 76/77/18
f 2/4/19 3/3/19 45/43/19 44/42/19
f 30/27/20 24/26/20 61/68/20 66/67/20
f 20/17/21 14/16/21 51/58/21 56/57/21
f 35/31/22 32/34/22 74/72/22 77/71/22
f 10/7/23 4/6/23 41/48/23 46/47/23
f 25/21/24 22/24/24 64/62/24 67/61/24
f 15/11/25 12/14/25 54/52/25 57/51/25
f 36/40/26 35/31/26 77/71/26 78/79/26
f 5/1/27 2/4/27 44/42/27 47/41/27
f 26/30/28 25/21/28 67/61/28 68/69/28
f 16/20/29 15/11/29 57/51/29 58/59/29
f 37/38/30 36/40/30 78/79/30 73/76/30
f 6/10/31 5/1/31 47/41/31 48/49/31
f 27/28/32 26/30/32 68/69/32 63/66/32
f 17/18/33 16/20/33 58/59/33 53/56/33
f 33/33/34 38/32/34 79/74/34 75/73/34
f 7/8/35 6/10/35 48/49/35 43/46/35
f 23/23/36 28/22/36 69/64/36 65/63/36
f 13/13/37 18/12/37 59/54/37 55/53/37
f 38/32/38 39/39/38 80/80/38 79/74/38
f 3/3/39 8/2/39 49/44/39 45/43/39
f 28/22/40 29/29/40 70/70/40 69/64/40
f 18/12/41 19/19/41 60/60/41 59/54/41
f 39/39/42 40/37/42 76/77/42 80/80/42
