# Blender v3.4.0 OBJ File: 'Track1.blend'
# www.blender.org
mtllib DrftZone_01.mtl
o Plane.012_Plane.005
v -0.477753 0.027099 0.264819
v -0.779856 0.027100 0.570252
v -0.405512 0.027100 1.178455
v 0.084644 0.027099 0.691606
v -0.701464 0.027099 0.511411
v -0.623609 0.027099 0.439013
v -0.547322 0.027099 0.354801
v -0.261131 0.027099 1.070525
v -0.133186 0.027099 0.951766
v -0.019365 0.027099 0.826153
v -0.779856 0.027100 0.570252
v -1.128043 0.027099 0.682110
v -1.092869 0.027099 1.401801
v -0.405512 0.027100 1.178455
v -1.034388 0.027100 0.671394
v -0.943891 0.027099 0.648912
v -0.858921 0.027100 0.615140
v -0.913558 0.027100 1.381121
v -0.737263 0.027099 1.337219
v -0.566503 0.027100 1.269459
v -1.128043 0.027099 0.682110
v -1.489576 0.027100 0.608120
v -1.796745 0.027100 1.255195
v -1.092869 0.027099 1.401801
v -1.405751 0.027100 0.643505
v -1.316087 0.027099 0.668042
v -1.222923 0.027099 0.680991
v -1.627161 0.027100 1.326895
v -1.451693 0.027099 1.374918
v -1.272743 0.027099 1.399760
v -1.489576 0.027100 0.608120
v -1.799882 0.027100 0.339391
v -2.333654 0.027100 0.803711
v -1.796745 0.027100 1.255195
v -1.724407 0.027099 0.425420
v -1.646784 0.027100 0.500178
v -1.568348 0.027100 0.561203
v -2.222102 0.027099 0.930648
v -2.096926 0.027099 1.050903
v -1.955296 0.027100 1.160938
v 0.084644 0.036403 0.691606
v -0.477753 0.036403 0.264819
v -0.547322 0.036403 0.354801
v -0.779856 0.036403 0.570252
v -0.405512 0.036403 1.178455
v -0.019365 0.036403 0.826153
v -0.701464 0.036403 0.511411
v -0.623609 0.036403 0.439013
v -0.261131 0.036403 1.070525
v -0.133186 0.036403 0.951766
v -0.405512 0.036403 1.178455
v -0.779856 0.036403 0.570252
v -0.858921 0.036403 0.615140
v -1.128043 0.036403 0.682110
v -1.092869 0.036403 1.401801
v -0.566503 0.036403 1.269459
v -1.034388 0.036403 0.671394
v -0.943891 0.036403 0.648912
v -0.913558 0.036403 1.381121
v -0.737263 0.036403 1.337219
v -1.092869 0.036403 1.401801
v -1.128043 0.036403 0.682110
v -1.222923 0.036403 0.680991
v -1.489576 0.036403 0.608120
v -1.796745 0.036403 1.255195
v -1.272743 0.036403 1.399760
v -1.405751 0.036403 0.643505
v -1.316087 0.036403 0.668042
v -1.627161 0.036403 1.326895
v -1.451693 0.036403 1.374918
v -1.796745 0.036403 1.255195
v -1.489576 0.036403 0.608120
v -1.568348 0.036403 0.561203
v -1.799882 0.036403 0.339391
v -2.333654 0.036403 0.803711
v -1.955296 0.036403 1.160938
v -1.724407 0.036403 0.425420
v -1.646784 0.036403 0.500178
v -2.222102 0.036403 0.930648
v -2.096926 0.036403 1.050903
vt 0.750000 0.112873
vt 0.750000 0.891105
vt 1.000000 0.891105
vt 1.000000 0.112873
vt 0.000000 0.112873
vt 0.000000 0.891105
vt 0.250000 0.891105
vt 0.250000 0.112873
vt 0.500000 0.891105
vt 0.500000 0.112873
vt 0.750000 0.112873
vt 0.750000 0.891105
vt 1.000000 0.891105
vt 1.000000 0.112873
vt 0.000000 0.112873
vt 0.000000 0.891105
vt 0.250000 0.891105
vt 0.250000 0.112873
vt 0.500000 0.891105
vt 0.500000 0.112873
vt 0.750000 0.112873
vt 0.750000 0.891105
vt 1.000000 0.891105
vt 1.000000 0.112873
vt 0.000000 0.112873
vt 0.000000 0.891105
vt 0.250000 0.891105
vt 0.250000 0.112873
vt 0.500000 0.891105
vt 0.500000 0.112873
vt 0.750000 0.112873
vt 0.750000 0.891105
vt 1.000000 0.891105
vt 1.000000 0.112873
vt 0.000000 0.112873
vt 0.000000 0.891105
vt 0.250000 0.891105
vt 0.250000 0.112873
vt 0.500000 0.891105
vt 0.500000 0.112873
vt 0.750000 0.112873
vt 1.000000 0.112873
vt 1.000000 0.891105
vt 0.750000 0.891105
vt 0.000000 0.112873
vt 0.250000 0.112873
vt 0.250000 0.891105
vt 0.000000 0.891105
vt 0.500000 0.112873
vt 0.500000 0.891105
vt 0.750000 0.112873
vt 1.000000 0.112873
vt 1.000000 0.891105
vt 0.750000 0.891105
vt 0.000000 0.112873
vt 0.250000 0.112873
vt 0.250000 0.891105
vt 0.000000 0.891105
vt 0.500000 0.112873
vt 0.500000 0.891105
vt 0.750000 0.112873
vt 1.000000 0.112873
vt 1.000000 0.891105
vt 0.750000 0.891105
vt 0.000000 0.112873
vt 0.250000 0.112873
vt 0.250000 0.891105
vt 0.000000 0.891105
vt 0.500000 0.112873
vt 0.500000 0.891105
vt 0.750000 0.112873
vt 1.000000 0.112873
vt 1.000000 0.891105
vt 0.750000 0.891105
vt 0.000000 0.112873
vt 0.250000 0.112873
vt 0.250000 0.891105
vt 0.000000 0.891105
vt 0.500000 0.112873
vt 0.500000 0.891105
vn -0.0000 -1.0000 0.0000
vn 0.0000 1.0000 -0.0000
vn 0.5987 0.0000 0.8009
vn -0.2640 0.0000 0.9645
vn 0.2416 0.0000 0.9704
vn -0.6135 0.0000 0.7897
vn 0.6803 0.0000 0.7329
vn -0.1375 0.0000 0.9905
vn 0.3688 0.0000 0.9295
vn 0.7410 0.0000 0.6715
vn 0.9034 0.0000 0.4288
vn 0.9988 0.0000 -0.0488
vn 0.8516 0.0000 -0.5242
vn 0.5117 0.0000 -0.8592
vn 0.6045 0.0000 -0.7966
vn 0.0118 0.0000 -0.9999
vn -0.4937 0.0000 -0.8696
vn -0.6563 0.0000 -0.7545
vn -0.7911 0.0000 -0.6117
vn -0.9034 0.0000 -0.4288
vn -0.9988 0.0000 0.0488
vn -0.5110 0.0000 0.8596
vn -0.8516 0.0000 0.5242
vn -0.0113 0.0000 0.9999
vn 0.4921 0.0000 0.8705
vn 0.7517 0.0000 -0.6595
vn 0.7912 0.0000 0.6116
vn 0.3889 0.0000 -0.9213
vn -0.1137 0.0000 -0.9935
vn 0.6937 0.0000 -0.7203
vn -0.6003 0.0000 -0.7998
vn 0.2640 0.0000 -0.9645
vn -0.2411 0.0000 -0.9705
vn 0.6141 0.0000 -0.7893
vn -0.6810 0.0000 -0.7323
vn 0.1377 0.0000 -0.9905
vn -0.3694 0.0000 -0.9293
vn -0.7512 0.0000 0.6601
vn -0.7411 0.0000 -0.6714
vn -0.3894 0.0000 0.9211
vn 0.1146 0.0000 0.9934
vn -0.6928 0.0000 0.7211
usemtl Material.007
s off
f 5/1/1 8/2/1 3/3/1 2/4/1
f 1/5/1 4/6/1 10/7/1 7/8/1
f 7/8/1 10/7/1 9/9/1 6/10/1
f 6/10/1 9/9/1 8/2/1 5/1/1
f 15/11/1 18/12/1 13/13/1 12/14/1
f 11/15/1 14/16/1 20/17/1 17/18/1
f 17/18/1 20/17/1 19/19/1 16/20/1
f 16/20/1 19/19/1 18/12/1 15/11/1
f 25/21/1 28/22/1 23/23/1 22/24/1
f 21/25/1 24/26/1 30/27/1 27/28/1
f 27/28/1 30/27/1 29/29/1 26/30/1
f 26/30/1 29/29/1 28/22/1 25/21/1
f 35/31/1 38/32/1 33/33/1 32/34/1
f 31/35/1 34/36/1 40/37/1 37/38/1
f 37/38/1 40/37/1 39/39/1 36/40/1
f 36/40/1 39/39/1 38/32/1 35/31/1
f 47/41/2 44/42/2 45/43/2 49/44/2
f 42/45/2 43/46/2 46/47/2 41/48/2
f 43/46/2 48/49/2 50/50/2 46/47/2
f 48/49/2 47/41/2 49/44/2 50/50/2
f 57/51/2 54/52/2 55/53/2 59/54/2
f 52/55/2 53/56/2 56/57/2 51/58/2
f 53/56/2 58/59/2 60/60/2 56/57/2
f 58/59/2 57/51/2 59/54/2 60/60/2
f 67/61/2 64/62/2 65/63/2 69/64/2
f 62/65/2 63/66/2 66/67/2 61/68/2
f 63/66/2 68/69/2 70/70/2 66/67/2
f 68/69/2 67/61/2 69/64/2 70/70/2
f 77/71/2 74/72/2 75/73/2 79/74/2
f 72/75/2 73/76/2 76/77/2 71/78/2
f 73/76/2 78/79/2 80/80/2 76/77/2
f 78/79/2 77/71/2 79/74/2 80/80/2
f 3/3/3 8/2/3 49/44/3 45/43/3
f 28/22/4 29/29/4 70/70/4 69/64/4
f 18/12/5 19/19/5 60/60/5 59/54/5
f 39/39/6 40/37/6 76/77/6 80/80/6
f 8/2/7 9/9/7 50/50/7 49/44/7
f 29/29/8 30/27/8 66/67/8 70/70/8
f 19/19/9 20/17/9 56/57/9 60/60/9
f 9/9/10 10/7/10 46/47/10 50/50/10
f 34/36/11 31/35/11 72/75/11 71/78/11
f 24/26/12 21/25/12 62/65/12 61/68/12
f 14/16/13 11/15/13 52/55/13 51/58/13
f 31/35/14 37/38/14 73/76/14 72/75/14
f 4/6/15 1/5/15 42/45/15 41/48/15
f 21/25/16 27/28/16 63/66/16 62/65/16
f 11/15/17 17/18/17 53/56/17 52/55/17
f 32/34/18 33/33/18 75/73/18 74/72/18
f 1/5/19 7/8/19 43/46/19 42/45/19
f 22/24/20 23/23/20 65/63/20 64/62/20
f 12/14/21 13/13/21 55/53/21 54/52/21
f 40/37/22 34/36/22 71/78/22 76/77/22
f 2/4/23 3/3/23 45/43/23 44/42/23
f 30/27/24 24/26/24 61/68/24 66/67/24
f 20/17/25 14/16/25 51/58/25 56/57/25
f 35/31/26 32/34/26 74/72/26 77/71/26
f 10/7/27 4/6/27 41/48/27 46/47/27
f 25/21/28 22/24/28 64/62/28 67/61/28
f 15/11/29 12/14/29 54/52/29 57/51/29
f 36/40/30 35/31/30 77/71/30 78/79/30
f 5/1/31 2/4/31 44/42/31 47/41/31
f 26/30/32 25/21/32 67/61/32 68/69/32
f 16/20/33 15/11/33 57/51/33 58/59/33
f 37/38/34 36/40/34 78/79/34 73/76/34
f 6/10/35 5/1/35 47/41/35 48/49/35
f 27/28/36 26/30/36 68/69/36 63/66/36
f 17/18/37 16/20/37 58/59/37 53/56/37
f 33/33/38 38/32/38 79/74/38 75/73/38
f 7/8/39 6/10/39 48/49/39 43/46/39
f 23/23/40 28/22/40 69/64/40 65/63/40
f 13/13/41 18/12/41 59/54/41 55/53/41
f 38/32/42 39/39/42 80/80/42 79/74/42
