# Blender v3.4.0 OBJ File: 'Track1.blend'
# www.blender.org
mtllib DriftZone03_02.mtl
o Plane.023_Plane.014
v -3.560840 0.049685 -3.712272
v -3.669930 0.049685 -4.090507
v -4.163630 0.049685 -4.066981
v -3.989818 0.049685 -3.466765
v -3.659512 0.049685 -3.990739
v -3.639194 0.049685 -3.893640
v -3.607399 0.049685 -3.800126
v -4.147240 0.049685 -3.910643
v -4.114043 0.049685 -3.756487
v -4.062330 0.049685 -3.606904
v -3.669907 0.049685 -4.090543
v -3.600611 0.049685 -4.496775
v -4.060133 0.049685 -4.678797
v -4.163609 0.049685 -4.067036
v -3.634531 0.049685 -4.398019
v -3.659140 0.049685 -4.295763
v -3.669894 0.049685 -4.192514
v -4.110525 0.049685 -4.531146
v -4.146283 0.049685 -4.379355
v -4.163163 0.049685 -4.223833
v -3.600576 0.049685 -4.496800
v -3.421599 0.049685 -4.750347
v -3.657135 0.049685 -5.184876
v -4.060092 0.049685 -4.678840
v -3.465144 0.049685 -4.717542
v -3.512362 0.049685 -4.662868
v -3.558969 0.049685 -4.587298
v -3.797342 0.049685 -5.083517
v -3.908315 0.049685 -4.958696
v -3.993977 0.049685 -4.821951
v -3.421574 0.049685 -4.750335
v -3.173329 0.049685 -4.736496
v -2.998961 0.049685 -5.198982
v -3.657070 0.049685 -5.184886
v -3.256662 0.049685 -4.761054
v -3.326240 0.049685 -4.770975
v -3.379061 0.049685 -4.766782
v -3.154374 0.049685 -5.244615
v -3.320411 0.049685 -5.265201
v -3.492788 0.049685 -5.247780
v -3.173305 0.049685 -4.736459
v -2.998919 0.049685 -5.198938
v -2.981063 0.049685 -4.634575
v -3.079660 0.049685 -4.693135
v -2.724962 0.049685 -5.057313
v -2.856318 0.049685 -5.134055
v -3.989818 0.057014 -3.466765
v -3.560840 0.057014 -3.712272
v -3.607399 0.057014 -3.800126
v -3.669930 0.057014 -4.090507
v -4.163630 0.057014 -4.066981
v -4.062330 0.057014 -3.606904
v -3.659512 0.057014 -3.990739
v -3.639194 0.057014 -3.893640
v -4.147240 0.057014 -3.910643
v -4.114043 0.057014 -3.756487
v -4.163609 0.057014 -4.067036
v -3.669907 0.057014 -4.090543
v -3.669894 0.057014 -4.192514
v -3.600611 0.057014 -4.496775
v -4.060133 0.057014 -4.678797
v -4.163163 0.057014 -4.223833
v -3.634531 0.057014 -4.398019
v -3.659140 0.057014 -4.295763
v -4.110525 0.057014 -4.531146
v -4.146283 0.057014 -4.379355
v -4.060092 0.057014 -4.678840
v -3.600576 0.057014 -4.496800
v -3.558969 0.057014 -4.587298
v -3.421599 0.057014 -4.750347
v -3.657135 0.057014 -5.184876
v -3.993977 0.057014 -4.821951
v -3.465144 0.057014 -4.717542
v -3.512362 0.057014 -4.662868
v -3.797342 0.057014 -5.083517
v -3.908315 0.057014 -4.958696
v -3.657070 0.057014 -5.184886
v -3.421574 0.057014 -4.750335
v -3.379061 0.057014 -4.766782
v -3.173329 0.057014 -4.736496
v -2.998961 0.057014 -5.198982
v -3.492788 0.057014 -5.247780
v -3.256662 0.057014 -4.761054
v -3.326240 0.057014 -4.770975
v -3.154374 0.057014 -5.244615
v -3.320411 0.057014 -5.265201
v -2.998919 0.057014 -5.198938
v -3.173305 0.057014 -4.736459
v -3.079660 0.057014 -4.693135
v -2.856318 0.057014 -5.134055
v -2.981063 0.057014 -4.634575
v -2.724962 0.057014 -5.057313
vt 0.750000 0.112873
vt 0.750000 0.891105
vt 1.000000 0.891105
vt 1.000000 0.112873
vt 0.000000 0.112873
vt 0.000000 0.891105
vt 0.250000 0.891105
vt 0.250000 0.112873
vt 0.500000 0.891105
vt 0.500000 0.112873
vt 0.750000 0.112873
vt 0.750000 0.891105
vt 1.000000 0.891105
vt 1.000000 0.112873
vt 0.000000 0.112873
vt 0.000000 0.891105
vt 0.250000 0.891105
vt 0.250000 0.112873
vt 0.500000 0.891105
vt 0.500000 0.112873
vt 0.750000 0.112873
vt 0.750000 0.891105
vt 1.000000 0.891105
vt 1.000000 0.112873
vt 0.000000 0.112873
vt 0.000000 0.891105
vt 0.250000 0.891105
vt 0.250000 0.112873
vt 0.500000 0.891105
vt 0.500000 0.112873
vt 0.750000 0.112873
vt 0.750000 0.891105
vt 1.000000 0.891105
vt 1.000000 0.112873
vt 0.000000 0.112873
vt 0.000000 0.891105
vt 0.250000 0.891105
vt 0.250000 0.112873
vt 0.500000 0.891105
vt 0.500000 0.112873
vt 0.000000 0.112873
vt 0.000000 0.891105
vt 0.250000 0.891105
vt 0.250000 0.112873
vt 0.500000 0.891105
vt 0.500000 0.112873
vt 0.750000 0.112873
vt 1.000000 0.112873
vt 1.000000 0.891105
vt 0.750000 0.891105
vt 0.000000 0.112873
vt 0.250000 0.112873
vt 0.250000 0.891105
vt 0.000000 0.891105
vt 0.500000 0.112873
vt 0.500000 0.891105
vt 0.750000 0.112873
vt 1.000000 0.112873
vt 1.000000 0.891105
vt 0.750000 0.891105
vt 0.000000 0.112873
vt 0.250000 0.112873
vt 0.250000 0.891105
vt 0.000000 0.891105
vt 0.500000 0.112873
vt 0.500000 0.891105
vt 0.750000 0.112873
vt 1.000000 0.112873
vt 1.000000 0.891105
vt 0.750000 0.891105
vt 0.000000 0.112873
vt 0.250000 0.112873
vt 0.250000 0.891105
vt 0.000000 0.891105
vt 0.500000 0.112873
vt 0.500000 0.891105
vt 0.750000 0.112873
vt 1.000000 0.112873
vt 1.000000 0.891105
vt 0.750000 0.891105
vt 0.000000 0.112873
vt 0.250000 0.112873
vt 0.250000 0.891105
vt 0.000000 0.891105
vt 0.500000 0.112873
vt 0.500000 0.891105
vt 0.000000 0.112873
vt 0.250000 0.112873
vt 0.250000 0.891105
vt 0.000000 0.891105
vt 0.500000 0.112873
vt 0.500000 0.891105
vn 0.0000 -1.0000 0.0000
vn 0.0000 1.0000 0.0000
vn -0.7473 0.0000 -0.6644
vn -0.9734 0.0000 -0.2293
vn -0.1006 0.0000 -0.9949
vn -0.9776 0.0000 0.2105
vn -0.8475 0.0000 -0.5309
vn -0.9942 0.0000 -0.1079
vn -0.9451 0.0000 0.3267
vn -0.9357 0.0000 -0.3528
vn -0.8792 0.0000 0.4765
vn -0.3683 0.0000 0.9297
vn -0.4199 0.0000 0.9076
vn 0.0476 0.0000 0.9989
vn 0.3608 0.0000 0.9326
vn 0.4967 0.0000 0.8679
vn 0.9086 0.0000 0.4177
vn 0.4141 0.0000 -0.9102
vn 1.0000 0.0000 0.0001
vn 0.9357 0.0000 0.3528
vn 0.8836 0.0000 -0.4683
vn 0.8792 0.0000 -0.4765
vn -0.5106 0.0000 0.8598
vn 0.3683 0.0000 -0.9297
vn -0.3575 0.0000 -0.9339
vn -0.0476 0.0000 -0.9989
vn -0.9078 0.0000 -0.4194
vn 0.5044 0.0000 -0.8634
vn -1.0000 0.0000 -0.0028
vn -0.2827 0.0000 0.9592
vn -0.8881 0.0000 0.4596
vn 0.6017 0.0000 0.7987
vn 0.9458 0.0000 0.3249
vn -0.1412 0.0000 0.9900
vn 0.9946 0.0000 -0.1039
vn 0.7568 0.0000 0.6536
vn 0.8553 0.0000 0.5181
vn 0.9722 0.0000 0.2340
vn 0.0791 0.0000 0.9969
vn 0.9788 0.0000 -0.2048
vn 0.8511 0.0000 0.5249
vn 0.9946 0.0000 0.1036
vn 0.2817 0.0000 -0.9595
vn 0.9468 0.0000 -0.3219
vn -0.5859 0.0000 -0.8104
vn -0.9464 0.0000 -0.3230
vn 0.1230 0.0000 -0.9924
vn -0.9945 0.0000 0.1043
usemtl Material.007
s off
f 5/1/1 8/2/1 3/3/1 2/4/1
f 1/5/1 4/6/1 10/7/1 7/8/1
f 7/8/1 10/7/1 9/9/1 6/10/1
f 6/10/1 9/9/1 8/2/1 5/1/1
f 15/11/1 18/12/1 13/13/1 12/14/1
f 11/15/1 14/16/1 20/17/1 17/18/1
f 17/18/1 20/17/1 19/19/1 16/20/1
f 16/20/1 19/19/1 18/12/1 15/11/1
f 25/21/1 28/22/1 23/23/1 22/24/1
f 21/25/1 24/26/1 30/27/1 27/28/1
f 27/28/1 30/27/1 29/29/1 26/30/1
f 26/30/1 29/29/1 28/22/1 25/21/1
f 35/31/1 38/32/1 33/33/1 32/34/1
f 31/35/1 34/36/1 40/37/1 37/38/1
f 37/38/1 40/37/1 39/39/1 36/40/1
f 36/40/1 39/39/1 38/32/1 35/31/1
f 41/41/1 42/42/1 46/43/1 44/44/1
f 44/44/1 46/43/1 45/45/1 43/46/1
f 53/47/2 50/48/2 51/49/2 55/50/2
f 48/51/2 49/52/2 52/53/2 47/54/2
f 49/52/2 54/55/2 56/56/2 52/53/2
f 54/55/2 53/47/2 55/50/2 56/56/2
f 63/57/2 60/58/2 61/59/2 65/60/2
f 58/61/2 59/62/2 62/63/2 57/64/2
f 59/62/2 64/65/2 66/66/2 62/63/2
f 64/65/2 63/57/2 65/60/2 66/66/2
f 73/67/2 70/68/2 71/69/2 75/70/2
f 68/71/2 69/72/2 72/73/2 67/74/2
f 69/72/2 74/75/2 76/76/2 72/73/2
f 74/75/2 73/67/2 75/70/2 76/76/2
f 83/77/2 80/78/2 81/79/2 85/80/2
f 78/81/2 79/82/2 82/83/2 77/84/2
f 79/82/2 84/85/2 86/86/2 82/83/2
f 84/85/2 83/77/2 85/80/2 86/86/2
f 88/87/2 89/88/2 90/89/2 87/90/2
f 89/88/2 91/91/2 92/92/2 90/89/2
f 28/22/3 29/29/3 76/76/3 75/70/3
f 18/12/4 19/19/4 66/66/4 65/60/4
f 39/39/5 40/37/5 82/83/5 86/86/5
f 8/2/6 9/9/6 56/56/6 55/50/6
f 29/29/7 30/27/7 72/73/7 76/76/7
f 19/19/8 20/17/8 62/63/8 66/66/8
f 9/9/9 10/7/9 52/53/9 56/56/9
f 42/42/10 41/41/10 88/87/10 87/90/10
f 34/36/11 31/35/11 78/81/11 77/84/11
f 24/26/12 21/25/12 68/71/12 67/74/12
f 41/41/13 44/44/13 89/88/13 88/87/13
f 14/16/14 11/15/14 58/61/14 57/64/14
f 31/35/15 37/38/15 79/82/15 78/81/15
f 4/6/16 1/5/16 48/51/16 47/54/16
f 21/25/17 27/28/17 69/72/17 68/71/17
f 46/43/18 42/42/18 87/90/18 90/89/18
f 11/15/19 17/18/19 59/62/19 58/61/19
f 32/34/20 33/33/20 81/79/20 80/78/20
f 1/5/21 7/8/21 49/52/21 48/51/21
f 22/24/22 23/23/22 71/69/22 70/68/22
f 44/44/23 43/46/23 91/91/23 89/88/23
f 12/14/24 13/13/24 61/59/24 60/58/24
f 40/37/25 34/36/25 77/84/25 82/83/25
f 2/4/26 3/3/26 51/49/26 50/48/26
f 30/27/27 24/26/27 67/74/27 72/73/27
f 45/45/28 46/43/28 90/89/28 92/92/28
f 20/17/29 14/16/29 57/64/29 62/63/29
f 35/31/30 32/34/30 80/78/30 83/77/30
f 10/7/31 4/6/31 47/54/31 52/53/31
f 25/21/32 22/24/32 70/68/32 73/67/32
f 15/11/33 12/14/33 60/58/33 63/57/33
f 36/40/34 35/31/34 83/77/34 84/85/34
f 5/1/35 2/4/35 50/48/35 53/47/35
f 26/30/36 25/21/36 73/67/36 74/75/36
f 43/46/37 45/45/37 92/92/37 91/91/37
f 16/20/38 15/11/38 63/57/38 64/65/38
f 37/38/39 36/40/39 84/85/39 79/82/39
f 6/10/40 5/1/40 53/47/40 54/55/40
f 27/28/41 26/30/41 74/75/41 69/72/41
f 17/18/42 16/20/42 64/65/42 59/62/42
f 33/33/43 38/32/43 85/80/43 81/79/43
f 7/8/44 6/10/44 54/55/44 49/52/44
f 23/23/45 28/22/45 75/70/45 71/69/45
f 13/13/46 18/12/46 65/60/46 61/59/46
f 38/32/47 39/39/47 86/86/47 85/80/47
f 3/3/48 8/2/48 55/50/48 51/49/48
